<?xml version="1.0" encoding="utf-8"?>
<!-- Generator: Adobe Illustrator 13.0.0, SVG Export Plug-In . SVG Version: 6.00 Build 14948)  -->
<!DOCTYPE svg PUBLIC "-//W3C//DTD SVG 1.1//EN" "http://www.w3.org/Graphics/SVG/1.1/DTD/svg11.dtd">
<svg version="1.1" id="Layer_1" xmlns="http://www.w3.org/2000/svg" xmlns:xlink="http://www.w3.org/1999/xlink" x="0px" y="0px"
	 width="487.67px" height="556.67px" viewBox="0 0 487.67 556.67" enable-background="new 0 0 487.67 556.67" xml:space="preserve">
<path fill-rule="evenodd" clip-rule="evenodd" fill="#C0C0C0" d="M186.17,236.42c5,5.25,91.61,7.35,89.5,1.25
	c-3.62-10.5-4.87-13.25-4.5-15.63c1.15-7.27,0.13-7.87-2.87-12.12c-0.17-0.24-0.32-0.47-0.46-0.71c30.89,6.2,59.5,12.46,59.5,12.46
	s-0.02-70.53-0.67-70.67c-93.33-19.66-117.33-17-117-44.33C209.85,91.67,210,1,210,1H1L0.67,554.67h173v-311
	c0,0-2.02-17.81,3.72-31.32C180.32,222.99,183.77,233.9,186.17,236.42z"/>
<path fill-rule="evenodd" clip-rule="evenodd" fill="none" stroke="#000000" stroke-linecap="round" stroke-linejoin="round" d="
	M186.17,236.42c5,5.25,91.61,7.35,89.5,1.25c-3.62-10.5-4.87-13.25-4.5-15.63c1.15-7.27,0.13-7.87-2.87-12.12
	c-0.17-0.24-0.32-0.47-0.46-0.71c30.89,6.2,59.5,12.46,59.5,12.46s-0.02-70.53-0.67-70.67c-93.33-19.66-117.33-17-117-44.33
	C209.85,91.67,210,1,210,1H1L0.67,554.67h173v-311c0,0-2.02-17.81,3.72-31.32C180.32,222.99,183.77,233.9,186.17,236.42z"/>
<path fill-rule="evenodd" clip-rule="evenodd" fill="none" stroke="#666666" stroke-linecap="round" stroke-linejoin="round" d="
	M166.67,228.67c2.833-51.75,35.917-40.083,52-37"/>
<path fill-rule="evenodd" clip-rule="evenodd" fill="none" stroke="#666666" stroke-linecap="round" stroke-linejoin="round" d="
	M163.17,203.5c8-27.66,26.67-24,43.5-22.83"/>
<path fill-rule="evenodd" clip-rule="evenodd" fill="none" stroke="#666666" stroke-linecap="round" stroke-linejoin="round" d="
	M184.05,214.42c2.25-11.63,10-12.38,24.37-11.25"/>
<polygon fill-rule="evenodd" clip-rule="evenodd" fill="#808080" points="325.67,240.67 174.67,230.67 264.67,412.67 "/>
<path fill-rule="evenodd" clip-rule="evenodd" fill="none" stroke="#666666" stroke-linecap="round" stroke-linejoin="round" d="
	M177.39,212.35c7.613-27.847,64.277-7.934,89.947-3.264"/>
<polyline fill-rule="evenodd" clip-rule="evenodd" fill="none" stroke="#000000" stroke-width="2" stroke-linecap="round" stroke-linejoin="round" points="
	324.67,240.67 174.67,230.67 264.67,411.67 "/>
<line fill-rule="evenodd" clip-rule="evenodd" fill="none" stroke="#000000" stroke-width="2" stroke-linecap="round" stroke-linejoin="round" x1="244.17" y1="165.17" x2="260.17" y2="92.17"/>
<line fill-rule="evenodd" clip-rule="evenodd" fill="none" stroke="#000000" stroke-width="2" stroke-linecap="round" stroke-linejoin="round" x1="246.17" y1="218.17" x2="352.17" y2="149.17"/>
<g>
	<polygon fill-rule="evenodd" clip-rule="evenodd" points="227,533.5 227,437.5 214.34,437.5 228.5,423.17 242.67,437.5 230,437.5 
		230,523.5 230,533.5 	"/>
</g>
<g>
	<rect x="9.32" y="25.67" fill-rule="evenodd" clip-rule="evenodd" fill="none" width="190.84" height="28.8"/>
	<path d="M27.044,46.686h-1.836v-6.211c0-0.469-0.021-0.921-0.063-1.357c-0.042-0.436-0.132-0.784-0.269-1.045
		c-0.15-0.28-0.365-0.491-0.645-0.635c-0.28-0.143-0.684-0.215-1.211-0.215c-0.514,0-1.029,0.129-1.543,0.386
		c-0.514,0.257-1.029,0.584-1.543,0.981c0.02,0.15,0.036,0.324,0.049,0.522c0.013,0.199,0.02,0.396,0.02,0.591v6.982h-1.836v-6.211
		c0-0.482-0.021-0.939-0.063-1.372c-0.042-0.433-0.132-0.78-0.269-1.04c-0.15-0.28-0.365-0.49-0.645-0.63
		c-0.28-0.14-0.684-0.21-1.211-0.21c-0.501,0-1.004,0.124-1.509,0.371c-0.504,0.248-1.007,0.563-1.509,0.947v8.145h-1.836V35.777
		h1.836v1.211c0.573-0.475,1.144-0.846,1.714-1.113c0.57-0.267,1.177-0.4,1.821-0.4c0.742,0,1.372,0.156,1.89,0.469
		s0.903,0.746,1.157,1.299c0.742-0.625,1.419-1.076,2.031-1.353c0.612-0.277,1.266-0.415,1.963-0.415
		c1.198,0,2.082,0.363,2.651,1.089c0.57,0.726,0.854,1.74,0.854,3.042V46.686z"/>
	<path d="M39.056,46.686H37.23v-1.162c-0.163,0.111-0.382,0.265-0.659,0.464c-0.277,0.199-0.545,0.356-0.806,0.474
		c-0.306,0.15-0.658,0.275-1.055,0.376c-0.397,0.101-0.863,0.151-1.396,0.151c-0.983,0-1.816-0.325-2.5-0.977
		c-0.684-0.651-1.025-1.481-1.025-2.49c0-0.827,0.177-1.496,0.532-2.007c0.355-0.511,0.861-0.913,1.519-1.206
		c0.664-0.293,1.461-0.491,2.393-0.596c0.931-0.104,1.93-0.182,2.998-0.234v-0.283c0-0.417-0.073-0.762-0.22-1.035
		s-0.356-0.488-0.63-0.645c-0.26-0.15-0.573-0.25-0.938-0.303c-0.365-0.052-0.746-0.078-1.143-0.078
		c-0.482,0-1.019,0.063-1.611,0.19s-1.205,0.311-1.836,0.552h-0.098v-1.865c0.358-0.098,0.875-0.205,1.553-0.322
		s1.344-0.176,2.002-0.176c0.768,0,1.437,0.063,2.007,0.19s1.063,0.344,1.479,0.649c0.41,0.3,0.723,0.687,0.938,1.162
		c0.215,0.475,0.322,1.064,0.322,1.768V46.686z M37.23,44v-3.037c-0.56,0.033-1.219,0.082-1.978,0.146
		c-0.758,0.065-1.359,0.16-1.802,0.283c-0.527,0.15-0.954,0.383-1.279,0.698c-0.326,0.316-0.488,0.75-0.488,1.304
		c0,0.625,0.189,1.095,0.566,1.411c0.377,0.316,0.954,0.474,1.729,0.474c0.645,0,1.234-0.125,1.768-0.376
		C36.279,44.653,36.774,44.352,37.23,44z"/>
	<path d="M48.255,46.588c-0.345,0.091-0.721,0.166-1.128,0.225s-0.77,0.088-1.089,0.088c-1.113,0-1.959-0.299-2.539-0.898
		c-0.58-0.599-0.869-1.559-0.869-2.881V37.32h-1.24v-1.543h1.24v-3.135h1.836v3.135h3.789v1.543h-3.789v4.971
		c0,0.573,0.013,1.021,0.039,1.343s0.117,0.624,0.273,0.903c0.143,0.26,0.34,0.451,0.591,0.571c0.25,0.121,0.633,0.181,1.147,0.181
		c0.299,0,0.612-0.044,0.938-0.132s0.56-0.161,0.703-0.22h0.098V46.588z"/>
	<path d="M59.603,41.422h-8.037c0,0.671,0.101,1.255,0.303,1.753s0.479,0.907,0.83,1.226c0.338,0.313,0.741,0.547,1.206,0.703
		s0.978,0.234,1.538,0.234c0.742,0,1.489-0.148,2.241-0.444c0.752-0.296,1.288-0.587,1.606-0.874h0.098v2.002
		c-0.619,0.26-1.25,0.479-1.895,0.654s-1.322,0.264-2.031,0.264c-1.81,0-3.223-0.49-4.238-1.47c-1.016-0.98-1.523-2.371-1.523-4.175
		c0-1.784,0.487-3.2,1.46-4.248c0.973-1.048,2.254-1.572,3.843-1.572c1.471,0,2.606,0.43,3.403,1.289s1.196,2.08,1.196,3.662V41.422
		z M57.816,40.016c-0.006-0.963-0.249-1.709-0.728-2.236s-1.206-0.791-2.183-0.791c-0.983,0-1.766,0.29-2.349,0.869
		c-0.583,0.58-0.913,1.299-0.991,2.158H57.816z"/>
	<path d="M69.193,37.779h-0.098c-0.273-0.065-0.539-0.112-0.796-0.142s-0.562-0.044-0.913-0.044c-0.566,0-1.113,0.125-1.641,0.376
		c-0.527,0.251-1.035,0.575-1.523,0.972v7.744h-1.836V35.777h1.836v1.611c0.729-0.586,1.372-1.001,1.929-1.245
		s1.125-0.366,1.704-0.366c0.319,0,0.55,0.008,0.693,0.024c0.143,0.016,0.358,0.047,0.645,0.093V37.779z"/>
	<path d="M72.894,33.951h-2.07v-1.904h2.07V33.951z M72.777,46.686h-1.836V35.777h1.836V46.686z"/>
	<path d="M84.886,46.686H83.06v-1.162c-0.163,0.111-0.382,0.265-0.659,0.464c-0.277,0.199-0.545,0.356-0.806,0.474
		c-0.306,0.15-0.658,0.275-1.055,0.376c-0.397,0.101-0.863,0.151-1.396,0.151c-0.983,0-1.816-0.325-2.5-0.977
		c-0.684-0.651-1.025-1.481-1.025-2.49c0-0.827,0.177-1.496,0.532-2.007c0.355-0.511,0.861-0.913,1.519-1.206
		c0.664-0.293,1.461-0.491,2.393-0.596c0.931-0.104,1.93-0.182,2.998-0.234v-0.283c0-0.417-0.073-0.762-0.22-1.035
		s-0.356-0.488-0.63-0.645c-0.26-0.15-0.573-0.25-0.938-0.303c-0.365-0.052-0.746-0.078-1.143-0.078
		c-0.482,0-1.019,0.063-1.611,0.19s-1.205,0.311-1.836,0.552h-0.098v-1.865c0.358-0.098,0.875-0.205,1.553-0.322
		s1.344-0.176,2.002-0.176c0.768,0,1.437,0.063,2.007,0.19s1.063,0.344,1.479,0.649c0.41,0.3,0.723,0.687,0.938,1.162
		c0.215,0.475,0.322,1.064,0.322,1.768V46.686z M83.06,44v-3.037c-0.56,0.033-1.219,0.082-1.978,0.146
		c-0.758,0.065-1.359,0.16-1.802,0.283c-0.527,0.15-0.954,0.383-1.279,0.698c-0.326,0.316-0.488,0.75-0.488,1.304
		c0,0.625,0.189,1.095,0.566,1.411c0.377,0.316,0.954,0.474,1.729,0.474c0.645,0,1.234-0.125,1.768-0.376
		C82.109,44.653,82.604,44.352,83.06,44z"/>
	<path d="M90.277,46.686h-1.836V31.49h1.836V46.686z"/>
	<path d="M110.541,41.148c0,0.912-0.128,1.732-0.386,2.461c-0.257,0.729-0.604,1.341-1.04,1.836c-0.462,0.514-0.97,0.9-1.523,1.157
		s-1.162,0.386-1.826,0.386c-0.619,0-1.159-0.073-1.621-0.22s-0.918-0.343-1.367-0.591l-0.117,0.508h-1.719V31.49h1.836v5.43
		c0.514-0.423,1.061-0.77,1.641-1.04c0.58-0.27,1.23-0.405,1.953-0.405c1.289,0,2.306,0.495,3.052,1.484
		C110.168,37.949,110.541,39.345,110.541,41.148z M108.646,41.197c0-1.302-0.215-2.29-0.645-2.964s-1.123-1.011-2.08-1.011
		c-0.534,0-1.074,0.116-1.621,0.347c-0.547,0.231-1.055,0.529-1.523,0.894v6.25c0.521,0.234,0.968,0.397,1.343,0.488
		c0.375,0.091,0.799,0.137,1.274,0.137c1.016,0,1.812-0.333,2.388-1.001C108.358,43.67,108.646,42.623,108.646,41.197z"/>
	<path d="M122.533,41.422h-8.037c0,0.671,0.101,1.255,0.303,1.753s0.479,0.907,0.83,1.226c0.338,0.313,0.741,0.547,1.206,0.703
		s0.978,0.234,1.538,0.234c0.742,0,1.489-0.148,2.241-0.444c0.752-0.296,1.288-0.587,1.606-0.874h0.098v2.002
		c-0.619,0.26-1.25,0.479-1.895,0.654s-1.322,0.264-2.031,0.264c-1.81,0-3.223-0.49-4.238-1.47c-1.016-0.98-1.523-2.371-1.523-4.175
		c0-1.784,0.487-3.2,1.46-4.248c0.973-1.048,2.254-1.572,3.843-1.572c1.471,0,2.606,0.43,3.403,1.289s1.196,2.08,1.196,3.662V41.422
		z M120.746,40.016c-0.006-0.963-0.249-1.709-0.728-2.236s-1.206-0.791-2.183-0.791c-0.983,0-1.766,0.29-2.349,0.869
		c-0.583,0.58-0.913,1.299-0.991,2.158H120.746z"/>
	<path d="M127.289,33.951h-2.07v-1.904h2.07V33.951z M127.171,46.686h-1.836V35.777h1.836V46.686z"/>
	<path d="M139.925,46.686h-1.836v-6.211c0-0.501-0.029-0.972-0.088-1.411s-0.166-0.783-0.322-1.03
		c-0.163-0.273-0.397-0.477-0.703-0.61c-0.306-0.133-0.703-0.2-1.191-0.2c-0.501,0-1.025,0.124-1.572,0.371
		c-0.547,0.248-1.071,0.563-1.572,0.947v8.145h-1.836V35.777h1.836v1.211c0.573-0.475,1.166-0.846,1.777-1.113
		c0.612-0.267,1.24-0.4,1.885-0.4c1.178,0,2.077,0.355,2.695,1.064c0.619,0.71,0.928,1.732,0.928,3.066V46.686z"/>
	<path d="M152.308,45.445c0,1.849-0.42,3.206-1.26,4.072c-0.84,0.866-2.132,1.299-3.877,1.299c-0.58,0-1.144-0.041-1.694-0.122
		c-0.55-0.082-1.092-0.197-1.626-0.347v-1.875h0.098c0.299,0.117,0.775,0.262,1.426,0.435c0.651,0.172,1.302,0.259,1.953,0.259
		c0.625,0,1.143-0.075,1.553-0.225c0.41-0.15,0.729-0.358,0.957-0.625c0.228-0.254,0.391-0.56,0.488-0.918
		c0.098-0.358,0.146-0.758,0.146-1.201v-0.996c-0.553,0.443-1.083,0.773-1.587,0.991c-0.504,0.218-1.147,0.327-1.929,0.327
		c-1.302,0-2.335-0.47-3.101-1.411c-0.765-0.941-1.147-2.267-1.147-3.979c0-0.938,0.132-1.746,0.396-2.427
		c0.264-0.68,0.624-1.268,1.079-1.763c0.423-0.462,0.938-0.822,1.543-1.079c0.605-0.257,1.208-0.386,1.807-0.386
		c0.631,0,1.161,0.063,1.587,0.19s0.877,0.321,1.353,0.581l0.117-0.469h1.719V45.445z M150.472,43.688V37.74
		c-0.488-0.221-0.942-0.379-1.362-0.474c-0.42-0.094-0.838-0.142-1.255-0.142c-1.009,0-1.803,0.339-2.383,1.016
		c-0.58,0.677-0.869,1.66-0.869,2.949c0,1.224,0.215,2.152,0.645,2.783c0.43,0.632,1.143,0.947,2.139,0.947
		c0.534,0,1.069-0.103,1.606-0.308S150.023,44.033,150.472,43.688z"/>
	<path d="M171.019,46.002c-0.612,0.293-1.193,0.521-1.743,0.684s-1.134,0.244-1.753,0.244c-0.788,0-1.51-0.116-2.168-0.347
		s-1.221-0.581-1.689-1.05c-0.475-0.469-0.843-1.061-1.104-1.777c-0.26-0.716-0.391-1.553-0.391-2.51c0-1.784,0.49-3.184,1.47-4.199
		s2.274-1.523,3.882-1.523c0.625,0,1.239,0.088,1.841,0.264s1.154,0.391,1.655,0.645v2.041h-0.098
		c-0.56-0.436-1.138-0.771-1.733-1.006s-1.177-0.352-1.743-0.352c-1.042,0-1.864,0.35-2.466,1.05
		c-0.602,0.7-0.903,1.727-0.903,3.081c0,1.315,0.294,2.326,0.884,3.032c0.589,0.707,1.417,1.06,2.485,1.06
		c0.371,0,0.749-0.049,1.133-0.146s0.729-0.225,1.035-0.381c0.267-0.137,0.518-0.281,0.752-0.435
		c0.234-0.153,0.42-0.285,0.557-0.396h0.098V46.002z"/>
	<path d="M182.416,46.686h-1.836v-1.211c-0.619,0.488-1.211,0.863-1.777,1.123s-1.191,0.391-1.875,0.391
		c-1.146,0-2.038-0.35-2.676-1.05c-0.638-0.7-0.957-1.727-0.957-3.081v-7.08h1.836v6.211c0,0.553,0.026,1.027,0.078,1.421
		c0.052,0.394,0.163,0.731,0.332,1.011c0.176,0.287,0.404,0.495,0.684,0.625c0.28,0.13,0.687,0.195,1.221,0.195
		c0.475,0,0.995-0.124,1.558-0.371c0.563-0.247,1.089-0.563,1.577-0.947v-8.145h1.836V46.686z"/>
	<path d="M191.693,46.588c-0.345,0.091-0.721,0.166-1.128,0.225s-0.77,0.088-1.089,0.088c-1.113,0-1.959-0.299-2.539-0.898
		c-0.58-0.599-0.869-1.559-0.869-2.881V37.32h-1.24v-1.543h1.24v-3.135h1.836v3.135h3.789v1.543h-3.789v4.971
		c0,0.573,0.013,1.021,0.039,1.343s0.117,0.624,0.273,0.903c0.143,0.26,0.34,0.451,0.591,0.571c0.25,0.121,0.633,0.181,1.147,0.181
		c0.299,0,0.612-0.044,0.938-0.132s0.56-0.161,0.703-0.22h0.098V46.588z"/>
</g>
<g>
	<rect x="256" y="68.67" fill-rule="evenodd" clip-rule="evenodd" fill="none" width="133.34" height="28.8"/>
	<path d="M271.859,89.002c-0.612,0.293-1.193,0.521-1.743,0.684s-1.134,0.244-1.753,0.244c-0.788,0-1.51-0.116-2.168-0.347
		s-1.221-0.581-1.689-1.05c-0.475-0.469-0.843-1.061-1.104-1.777s-0.391-1.553-0.391-2.51c0-1.784,0.49-3.184,1.47-4.199
		s2.274-1.523,3.882-1.523c0.625,0,1.239,0.088,1.841,0.264s1.154,0.391,1.655,0.645v2.041h-0.098
		c-0.56-0.436-1.138-0.771-1.733-1.006s-1.177-0.352-1.743-0.352c-1.042,0-1.864,0.35-2.466,1.05s-0.903,1.727-0.903,3.081
		c0,1.315,0.294,2.326,0.884,3.032s1.417,1.06,2.485,1.06c0.371,0,0.749-0.049,1.133-0.146s0.729-0.225,1.035-0.381
		c0.267-0.137,0.518-0.282,0.752-0.435s0.42-0.285,0.557-0.396h0.098V89.002z"/>
	<path d="M283.334,89.686h-1.836v-6.211c0-0.501-0.029-0.972-0.088-1.411s-0.166-0.783-0.322-1.03
		c-0.163-0.273-0.397-0.477-0.703-0.61s-0.703-0.2-1.191-0.2c-0.501,0-1.025,0.124-1.572,0.371s-1.071,0.563-1.572,0.947v8.145
		h-1.836V74.49h1.836v5.498c0.573-0.475,1.166-0.846,1.777-1.113s1.24-0.4,1.885-0.4c1.178,0,2.077,0.355,2.695,1.064
		s0.928,1.732,0.928,3.066V89.686z"/>
	<path d="M288.842,76.951h-2.07v-1.904h2.07V76.951z M288.725,89.686h-1.836V78.777h1.836V89.686z"/>
	<path d="M301.957,84.1c0,0.885-0.127,1.694-0.381,2.427s-0.612,1.353-1.074,1.86c-0.43,0.482-0.936,0.854-1.519,1.118
		s-1.2,0.396-1.851,0.396c-0.566,0-1.079-0.062-1.538-0.186s-0.926-0.316-1.401-0.576v4.57h-1.836V78.777h1.836v1.143
		c0.488-0.41,1.037-0.753,1.646-1.03s1.258-0.415,1.948-0.415c1.315,0,2.339,0.497,3.071,1.489S301.957,82.335,301.957,84.1z
		 M300.063,84.148c0-1.315-0.225-2.298-0.674-2.949s-1.139-0.977-2.07-0.977c-0.527,0-1.058,0.114-1.592,0.342
		s-1.045,0.527-1.533,0.898v6.182c0.521,0.234,0.968,0.394,1.343,0.479s0.799,0.127,1.274,0.127c1.022,0,1.82-0.345,2.393-1.035
		S300.063,85.502,300.063,84.148z"/>
	<path d="M317.689,93.709h-2.236c-1.152-1.322-2.047-2.764-2.686-4.326s-0.957-3.324-0.957-5.283s0.319-3.721,0.957-5.283
		s1.533-3.004,2.686-4.326h2.236v0.098c-0.527,0.475-1.03,1.024-1.509,1.646s-0.923,1.346-1.333,2.173
		c-0.391,0.801-0.708,1.683-0.952,2.646s-0.366,1.979-0.366,3.047c0,1.113,0.119,2.132,0.356,3.057s0.558,1.803,0.962,2.637
		c0.391,0.801,0.836,1.525,1.338,2.173s1.002,1.196,1.504,1.646V93.709z"/>
	<path d="M328.725,86.541c0,0.996-0.412,1.813-1.235,2.451s-1.948,0.957-3.374,0.957c-0.807,0-1.548-0.096-2.222-0.288
		s-1.239-0.402-1.694-0.63v-2.061h0.098c0.58,0.436,1.224,0.783,1.934,1.04s1.39,0.386,2.041,0.386c0.807,0,1.439-0.13,1.895-0.391
		s0.684-0.67,0.684-1.23c0-0.43-0.124-0.755-0.371-0.977s-0.723-0.41-1.426-0.566c-0.26-0.059-0.601-0.127-1.021-0.205
		s-0.802-0.163-1.147-0.254c-0.957-0.254-1.636-0.626-2.036-1.118s-0.601-1.095-0.601-1.812c0-0.449,0.093-0.873,0.278-1.27
		s0.467-0.752,0.845-1.064c0.365-0.306,0.829-0.548,1.392-0.728s1.193-0.269,1.89-0.269c0.651,0,1.31,0.08,1.978,0.239
		s1.222,0.353,1.665,0.581v1.963h-0.098c-0.469-0.345-1.039-0.636-1.709-0.874s-1.328-0.356-1.973-0.356
		c-0.67,0-1.237,0.128-1.699,0.386s-0.693,0.64-0.693,1.147c0,0.449,0.14,0.788,0.42,1.016c0.273,0.228,0.716,0.414,1.328,0.557
		c0.338,0.078,0.718,0.156,1.138,0.234s0.77,0.15,1.05,0.215c0.853,0.195,1.51,0.531,1.973,1.006
		C328.494,85.109,328.725,85.747,328.725,86.541z"/>
	<path d="M345.072,78.777l-2.842,10.908h-1.699l-2.803-8.408l-2.783,8.408h-1.689l-2.871-10.908h1.914l2.002,8.447l2.725-8.447
		h1.514l2.793,8.447l1.895-8.447H345.072z"/>
	<path d="M356,89.686h-1.826v-1.162c-0.163,0.111-0.382,0.265-0.659,0.464s-0.545,0.356-0.806,0.474
		c-0.306,0.15-0.658,0.275-1.055,0.376s-0.863,0.151-1.396,0.151c-0.983,0-1.816-0.326-2.5-0.977s-1.025-1.481-1.025-2.49
		c0-0.827,0.177-1.496,0.532-2.007s0.861-0.913,1.519-1.206c0.664-0.293,1.461-0.492,2.393-0.596s1.93-0.182,2.998-0.234v-0.283
		c0-0.417-0.073-0.762-0.22-1.035s-0.356-0.488-0.63-0.645c-0.26-0.15-0.573-0.25-0.938-0.303s-0.746-0.078-1.143-0.078
		c-0.482,0-1.019,0.063-1.611,0.19s-1.205,0.311-1.836,0.552h-0.098v-1.865c0.358-0.098,0.875-0.205,1.553-0.322
		s1.344-0.176,2.002-0.176c0.768,0,1.437,0.063,2.007,0.19s1.063,0.343,1.479,0.649c0.41,0.299,0.723,0.687,0.938,1.162
		S356,81.58,356,82.283V89.686z M354.174,87v-3.037c-0.56,0.033-1.219,0.082-1.978,0.146s-1.359,0.16-1.802,0.283
		c-0.527,0.15-0.954,0.382-1.279,0.698s-0.488,0.75-0.488,1.304c0,0.625,0.189,1.095,0.566,1.411s0.954,0.474,1.729,0.474
		c0.645,0,1.234-0.125,1.768-0.376S353.718,87.352,354.174,87z"/>
	<path d="M366.342,80.779h-0.098c-0.273-0.065-0.539-0.112-0.796-0.142s-0.562-0.044-0.913-0.044c-0.566,0-1.113,0.125-1.641,0.376
		s-1.035,0.575-1.523,0.972v7.744h-1.836V78.777h1.836v1.611c0.729-0.586,1.372-1.001,1.929-1.245s1.125-0.366,1.704-0.366
		c0.319,0,0.55,0.008,0.693,0.024s0.358,0.047,0.645,0.093V80.779z"/>
	<path d="M373.939,76.268h-0.098c-0.202-0.059-0.465-0.119-0.791-0.181s-0.612-0.093-0.859-0.093c-0.788,0-1.359,0.174-1.714,0.522
		s-0.532,0.978-0.532,1.89v0.371h3.311v1.543h-3.252v9.365h-1.836V80.32h-1.24v-1.543h1.24v-0.361c0-1.295,0.322-2.29,0.967-2.983
		s1.576-1.04,2.793-1.04c0.41,0,0.78,0.02,1.108,0.059s0.63,0.084,0.903,0.137V76.268z"/>
	<path d="M381.586,84.1c0,1.959-0.319,3.721-0.957,5.283s-1.533,3.004-2.686,4.326h-2.236v-0.098
		c0.501-0.449,1.004-0.998,1.509-1.646s0.949-1.372,1.333-2.173c0.404-0.833,0.724-1.712,0.962-2.637s0.356-1.943,0.356-3.057
		c0-1.068-0.121-2.083-0.361-3.047s-0.56-1.846-0.957-2.646c-0.41-0.827-0.854-1.551-1.333-2.173s-0.981-1.17-1.509-1.646V74.49
		h2.236c1.152,1.322,2.047,2.764,2.686,4.326S381.586,82.14,381.586,84.1z"/>
</g>
<g>
	<rect x="355.67" y="136.67" fill-rule="evenodd" clip-rule="evenodd" fill="none" width="139.52" height="52.8"/>
	<path d="M367.076,152.148c0,0.912-0.128,1.732-0.386,2.461s-0.604,1.341-1.04,1.836c-0.462,0.514-0.97,0.9-1.523,1.157
		s-1.162,0.386-1.826,0.386c-0.619,0-1.159-0.073-1.621-0.22s-0.918-0.343-1.367-0.591l-0.117,0.508h-1.719V142.49h1.836v5.43
		c0.514-0.423,1.061-0.77,1.641-1.04s1.23-0.405,1.953-0.405c1.289,0,2.306,0.495,3.052,1.484S367.076,150.345,367.076,152.148z
		 M365.182,152.197c0-1.302-0.215-2.29-0.645-2.964s-1.123-1.011-2.08-1.011c-0.534,0-1.074,0.116-1.621,0.347
		s-1.055,0.529-1.523,0.894v6.25c0.521,0.234,0.968,0.397,1.343,0.488s0.799,0.137,1.274,0.137c1.016,0,1.812-0.333,2.388-1.001
		S365.182,153.623,365.182,152.197z"/>
	<path d="M378.98,157.686h-1.836v-1.211c-0.619,0.488-1.211,0.863-1.777,1.123s-1.191,0.391-1.875,0.391
		c-1.146,0-2.038-0.35-2.676-1.05s-0.957-1.727-0.957-3.081v-7.08h1.836v6.211c0,0.553,0.026,1.027,0.078,1.421
		s0.163,0.731,0.332,1.011c0.176,0.287,0.404,0.495,0.684,0.625s0.687,0.195,1.221,0.195c0.475,0,0.995-0.124,1.558-0.371
		s1.089-0.563,1.577-0.947v-8.145h1.836V157.686z"/>
	<path d="M384.566,144.951h-2.07v-1.904h2.07V144.951z M384.449,157.686h-1.836v-10.908h1.836V157.686z"/>
	<path d="M389.938,157.686h-1.836V142.49h1.836V157.686z"/>
	<path d="M399.234,157.588c-0.345,0.091-0.721,0.166-1.128,0.225s-0.77,0.088-1.089,0.088c-1.113,0-1.959-0.299-2.539-0.898
		s-0.869-1.559-0.869-2.881v-5.801h-1.24v-1.543h1.24v-3.135h1.836v3.135h3.789v1.543h-3.789v4.971c0,0.573,0.013,1.021,0.039,1.343
		s0.117,0.624,0.273,0.903c0.143,0.26,0.34,0.451,0.591,0.571s0.633,0.181,1.147,0.181c0.299,0,0.612-0.044,0.938-0.132
		s0.56-0.161,0.703-0.22h0.098V157.588z"/>
	<path d="M417.525,157.686h-1.836v-1.211c-0.619,0.488-1.211,0.863-1.777,1.123s-1.191,0.391-1.875,0.391
		c-1.146,0-2.038-0.35-2.676-1.05s-0.957-1.727-0.957-3.081v-7.08h1.836v6.211c0,0.553,0.026,1.027,0.078,1.421
		s0.163,0.731,0.332,1.011c0.176,0.287,0.404,0.495,0.684,0.625s0.687,0.195,1.221,0.195c0.475,0,0.995-0.124,1.558-0.371
		s1.089-0.563,1.577-0.947v-8.145h1.836V157.686z"/>
	<path d="M430.738,152.1c0,0.885-0.127,1.694-0.381,2.427s-0.612,1.353-1.074,1.86c-0.43,0.482-0.936,0.854-1.519,1.118
		s-1.2,0.396-1.851,0.396c-0.566,0-1.079-0.062-1.538-0.186s-0.926-0.316-1.401-0.576v4.57h-1.836v-14.932h1.836v1.143
		c0.488-0.41,1.037-0.753,1.646-1.03s1.258-0.415,1.948-0.415c1.315,0,2.339,0.497,3.071,1.489S430.738,150.335,430.738,152.1z
		 M428.844,152.148c0-1.315-0.225-2.298-0.674-2.949s-1.139-0.977-2.07-0.977c-0.527,0-1.058,0.114-1.592,0.342
		s-1.045,0.527-1.533,0.898v6.182c0.521,0.234,0.968,0.394,1.343,0.479s0.799,0.127,1.274,0.127c1.022,0,1.82-0.345,2.393-1.035
		S428.844,153.502,428.844,152.148z"/>
	<path d="M449.762,152.422h-8.037c0,0.67,0.101,1.255,0.303,1.753s0.479,0.907,0.83,1.226c0.338,0.313,0.741,0.547,1.206,0.703
		s0.978,0.234,1.538,0.234c0.742,0,1.489-0.148,2.241-0.444s1.288-0.587,1.606-0.874h0.098v2.002
		c-0.619,0.26-1.25,0.479-1.895,0.654s-1.322,0.264-2.031,0.264c-1.81,0-3.223-0.49-4.238-1.47s-1.523-2.372-1.523-4.175
		c0-1.784,0.487-3.2,1.46-4.248s2.254-1.572,3.843-1.572c1.471,0,2.606,0.43,3.403,1.289s1.196,2.08,1.196,3.662V152.422z
		 M447.975,151.016c-0.006-0.963-0.249-1.709-0.728-2.236s-1.206-0.791-2.183-0.791c-0.983,0-1.766,0.29-2.349,0.869
		s-0.913,1.299-0.991,2.158H447.975z"/>
	<path d="M461.393,157.686h-1.836v-1.143c-0.527,0.456-1.078,0.811-1.65,1.064s-1.195,0.381-1.865,0.381
		c-1.302,0-2.335-0.501-3.101-1.504s-1.147-2.393-1.147-4.17c0-0.924,0.132-1.748,0.396-2.471s0.62-1.338,1.069-1.846
		c0.443-0.495,0.958-0.873,1.548-1.133s1.2-0.391,1.831-0.391c0.573,0,1.081,0.06,1.523,0.181s0.908,0.308,1.396,0.562v-4.727h1.836
		V157.686z M459.557,155v-6.26c-0.495-0.221-0.938-0.375-1.328-0.459s-0.817-0.127-1.279-0.127c-1.029,0-1.83,0.358-2.402,1.074
		s-0.859,1.732-0.859,3.047c0,1.295,0.221,2.28,0.664,2.954s1.152,1.011,2.129,1.011c0.521,0,1.048-0.116,1.582-0.347
		S459.094,155.365,459.557,155z"/>
	<path d="M473.854,156.445c0,1.849-0.42,3.207-1.26,4.072s-2.132,1.299-3.877,1.299c-0.58,0-1.144-0.041-1.694-0.122
		s-1.092-0.197-1.626-0.347v-1.875h0.098c0.299,0.117,0.775,0.262,1.426,0.435s1.302,0.259,1.953,0.259
		c0.625,0,1.143-0.075,1.553-0.225s0.729-0.358,0.957-0.625c0.228-0.254,0.391-0.56,0.488-0.918s0.146-0.758,0.146-1.201v-0.996
		c-0.553,0.443-1.083,0.773-1.587,0.991s-1.147,0.327-1.929,0.327c-1.302,0-2.335-0.47-3.101-1.411s-1.147-2.267-1.147-3.979
		c0-0.938,0.132-1.747,0.396-2.427s0.624-1.268,1.079-1.763c0.423-0.462,0.938-0.822,1.543-1.079s1.208-0.386,1.807-0.386
		c0.631,0,1.161,0.063,1.587,0.19s0.877,0.321,1.353,0.581l0.117-0.469h1.719V156.445z M472.018,154.688v-5.947
		c-0.488-0.221-0.942-0.379-1.362-0.474s-0.838-0.142-1.255-0.142c-1.009,0-1.803,0.338-2.383,1.016s-0.869,1.66-0.869,2.949
		c0,1.224,0.215,2.152,0.645,2.783s1.143,0.947,2.139,0.947c0.534,0,1.069-0.103,1.606-0.308S471.568,155.033,472.018,154.688z"/>
	<path d="M486.598,152.422h-8.037c0,0.67,0.101,1.255,0.303,1.753s0.479,0.907,0.83,1.226c0.338,0.313,0.741,0.547,1.206,0.703
		s0.978,0.234,1.538,0.234c0.742,0,1.489-0.148,2.241-0.444s1.288-0.587,1.606-0.874h0.098v2.002
		c-0.619,0.26-1.25,0.479-1.895,0.654s-1.322,0.264-2.031,0.264c-1.81,0-3.223-0.49-4.238-1.47s-1.523-2.372-1.523-4.175
		c0-1.784,0.487-3.2,1.46-4.248s2.254-1.572,3.843-1.572c1.471,0,2.606,0.43,3.403,1.289s1.196,2.08,1.196,3.662V152.422z
		 M484.811,151.016c-0.006-0.963-0.249-1.709-0.728-2.236s-1.206-0.791-2.183-0.791c-0.983,0-1.766,0.29-2.349,0.869
		s-0.913,1.299-0.991,2.158H484.811z"/>
	<path d="M363.316,185.709h-2.236c-1.152-1.322-2.047-2.764-2.686-4.326s-0.957-3.324-0.957-5.283s0.319-3.721,0.957-5.283
		s1.533-3.004,2.686-4.326h2.236v0.098c-0.527,0.475-1.03,1.024-1.509,1.646s-0.923,1.346-1.333,2.173
		c-0.391,0.801-0.708,1.683-0.952,2.646s-0.366,1.979-0.366,3.047c0,1.113,0.119,2.132,0.356,3.057s0.558,1.803,0.962,2.637
		c0.391,0.801,0.836,1.525,1.338,2.173s1.002,1.196,1.504,1.646V185.709z"/>
	<path d="M377.672,177.213c0,0.723-0.137,1.361-0.41,1.914s-0.641,1.009-1.104,1.367c-0.547,0.43-1.147,0.736-1.802,0.918
		s-1.486,0.273-2.495,0.273h-5.156v-14.541h4.307c1.061,0,1.855,0.039,2.383,0.117s1.032,0.241,1.514,0.488
		c0.534,0.28,0.921,0.64,1.162,1.079s0.361,0.965,0.361,1.577c0,0.69-0.176,1.278-0.527,1.763s-0.82,0.874-1.406,1.167v0.078
		c0.983,0.202,1.758,0.633,2.324,1.294S377.672,176.204,377.672,177.213z M374.42,170.66c0-0.352-0.059-0.648-0.176-0.889
		s-0.306-0.436-0.566-0.586c-0.306-0.176-0.677-0.285-1.113-0.327s-0.977-0.063-1.621-0.063h-2.305v4.199h2.5
		c0.605,0,1.087-0.031,1.445-0.093s0.69-0.19,0.996-0.386s0.522-0.448,0.649-0.757S374.42,171.083,374.42,170.66z M375.66,177.291
		c0-0.586-0.088-1.051-0.264-1.396s-0.495-0.638-0.957-0.879c-0.313-0.163-0.692-0.269-1.138-0.317s-0.988-0.073-1.626-0.073h-3.037
		v5.41h2.559c0.846,0,1.54-0.044,2.08-0.132s0.983-0.249,1.328-0.483c0.365-0.254,0.631-0.543,0.801-0.869
		S375.66,177.805,375.66,177.291z"/>
	<path d="M391.363,175.846c0,1.055-0.116,1.974-0.347,2.759s-0.61,1.437-1.138,1.958c-0.501,0.495-1.087,0.856-1.758,1.084
		s-1.452,0.342-2.344,0.342c-0.912,0-1.706-0.121-2.383-0.361s-1.247-0.596-1.709-1.064c-0.527-0.534-0.907-1.178-1.138-1.934
		s-0.347-1.683-0.347-2.783v-8.701h1.934v8.799c0,0.788,0.054,1.41,0.161,1.865s0.288,0.869,0.542,1.24
		c0.287,0.423,0.675,0.742,1.167,0.957s1.083,0.322,1.772,0.322c0.697,0,1.289-0.106,1.777-0.317s0.879-0.532,1.172-0.962
		c0.254-0.371,0.435-0.796,0.542-1.274s0.161-1.073,0.161-1.782v-8.848h1.934V175.846z"/>
	<path d="M404.635,181.686h-9.58v-14.541h9.58v1.719h-7.646v3.984h7.646v1.719h-7.646v5.4h7.646V181.686z"/>
	<path d="M413.063,176.1c0,1.959-0.319,3.721-0.957,5.283s-1.533,3.004-2.686,4.326h-2.236v-0.098
		c0.501-0.449,1.004-0.998,1.509-1.646s0.949-1.372,1.333-2.173c0.404-0.833,0.724-1.712,0.962-2.637s0.356-1.943,0.356-3.057
		c0-1.068-0.121-2.083-0.361-3.047s-0.56-1.846-0.957-2.646c-0.41-0.827-0.854-1.551-1.333-2.173s-0.981-1.17-1.509-1.646v-0.098
		h2.236c1.152,1.322,2.047,2.764,2.686,4.326S413.063,174.14,413.063,176.1z"/>
</g>
<g>
	<rect x="217.67" y="260.67" fill-rule="evenodd" clip-rule="evenodd" fill="none" width="84.92" height="28.8"/>
	<path d="M225.141,281.588c-0.345,0.091-0.721,0.166-1.128,0.225s-0.77,0.088-1.089,0.088c-1.113,0-1.959-0.299-2.539-0.898
		s-0.869-1.559-0.869-2.881v-5.801h-1.24v-1.543h1.24v-3.135h1.836v3.135h3.789v1.543h-3.789v4.971c0,0.573,0.013,1.021,0.039,1.343
		s0.117,0.624,0.273,0.903c0.143,0.26,0.34,0.451,0.591,0.571s0.633,0.181,1.147,0.181c0.299,0,0.612-0.044,0.938-0.132
		s0.56-0.161,0.703-0.22h0.098V281.588z"/>
	<path d="M236.654,276.236c0,1.777-0.456,3.18-1.367,4.209s-2.132,1.543-3.662,1.543c-1.543,0-2.769-0.514-3.677-1.543
		s-1.362-2.432-1.362-4.209s0.454-3.182,1.362-4.214s2.134-1.548,3.677-1.548c1.53,0,2.75,0.516,3.662,1.548
		S236.654,274.459,236.654,276.236z M234.76,276.236c0-1.413-0.277-2.462-0.83-3.149s-1.322-1.03-2.305-1.03
		c-0.996,0-1.769,0.343-2.319,1.03s-0.825,1.737-0.825,3.149c0,1.367,0.277,2.404,0.83,3.11s1.325,1.06,2.314,1.06
		c0.977,0,1.743-0.35,2.3-1.05S234.76,277.617,234.76,276.236z"/>
	<path d="M248.793,276.236c0,1.777-0.456,3.18-1.367,4.209s-2.132,1.543-3.662,1.543c-1.543,0-2.769-0.514-3.677-1.543
		s-1.362-2.432-1.362-4.209s0.454-3.182,1.362-4.214s2.134-1.548,3.677-1.548c1.53,0,2.75,0.516,3.662,1.548
		S248.793,274.459,248.793,276.236z M246.898,276.236c0-1.413-0.277-2.462-0.83-3.149s-1.322-1.03-2.305-1.03
		c-0.996,0-1.769,0.343-2.319,1.03s-0.825,1.737-0.825,3.149c0,1.367,0.277,2.404,0.83,3.11s1.325,1.06,2.314,1.06
		c0.977,0,1.743-0.35,2.3-1.05S246.898,277.617,246.898,276.236z"/>
	<path d="M253.49,281.686h-1.836V266.49h1.836V281.686z"/>
	<path d="M269.818,281.588c-0.345,0.091-0.721,0.166-1.128,0.225s-0.77,0.088-1.089,0.088c-1.113,0-1.959-0.299-2.539-0.898
		s-0.869-1.559-0.869-2.881v-5.801h-1.24v-1.543h1.24v-3.135h1.836v3.135h3.789v1.543h-3.789v4.971c0,0.573,0.013,1.021,0.039,1.343
		s0.117,0.624,0.273,0.903c0.143,0.26,0.34,0.451,0.591,0.571s0.633,0.181,1.147,0.181c0.299,0,0.612-0.044,0.938-0.132
		s0.56-0.161,0.703-0.22h0.098V281.588z"/>
	<path d="M274.008,268.951h-2.07v-1.904h2.07V268.951z M273.891,281.686h-1.836v-10.908h1.836V281.686z"/>
	<path d="M287.123,276.1c0,0.885-0.127,1.694-0.381,2.427s-0.612,1.353-1.074,1.86c-0.43,0.482-0.936,0.854-1.519,1.118
		s-1.2,0.396-1.851,0.396c-0.566,0-1.079-0.062-1.538-0.186s-0.926-0.316-1.401-0.576v4.57h-1.836v-14.932h1.836v1.143
		c0.488-0.41,1.037-0.753,1.646-1.03s1.258-0.415,1.948-0.415c1.315,0,2.339,0.497,3.071,1.489S287.123,274.335,287.123,276.1z
		 M285.229,276.148c0-1.315-0.225-2.298-0.674-2.949s-1.139-0.977-2.07-0.977c-0.527,0-1.058,0.114-1.592,0.342
		s-1.045,0.527-1.533,0.898v6.182c0.521,0.234,0.968,0.394,1.343,0.479s0.799,0.127,1.274,0.127c1.022,0,1.82-0.345,2.393-1.035
		S285.229,277.502,285.229,276.148z"/>
</g>
<g>
	<rect x="233.67" y="454.67" fill-rule="evenodd" clip-rule="evenodd" fill="none" width="258.2" height="28.8"/>
	<path d="M244.324,475.686h-1.836v-1.143c-0.527,0.456-1.078,0.811-1.65,1.064s-1.195,0.381-1.865,0.381
		c-1.302,0-2.335-0.501-3.101-1.504s-1.147-2.393-1.147-4.17c0-0.924,0.132-1.748,0.396-2.471s0.62-1.338,1.069-1.846
		c0.443-0.495,0.958-0.873,1.548-1.133s1.2-0.391,1.831-0.391c0.573,0,1.081,0.06,1.523,0.181s0.908,0.308,1.396,0.562v-4.727h1.836
		V475.686z M242.488,473v-6.26c-0.495-0.221-0.938-0.375-1.328-0.459s-0.817-0.127-1.279-0.127c-1.029,0-1.83,0.358-2.402,1.074
		s-0.859,1.732-0.859,3.047c0,1.295,0.221,2.28,0.664,2.954s1.152,1.011,2.129,1.011c0.521,0,1.048-0.116,1.582-0.347
		S242.026,473.365,242.488,473z"/>
	<path d="M249.91,462.951h-2.07v-1.904h2.07V462.951z M249.793,475.686h-1.836v-10.908h1.836V475.686z"/>
	<path d="M260.232,466.779h-0.098c-0.273-0.065-0.539-0.112-0.796-0.142s-0.562-0.044-0.913-0.044c-0.566,0-1.113,0.125-1.641,0.376
		s-1.035,0.575-1.523,0.972v7.744h-1.836v-10.908h1.836v1.611c0.729-0.586,1.372-1.001,1.929-1.245s1.125-0.366,1.704-0.366
		c0.319,0,0.55,0.008,0.693,0.024s0.358,0.047,0.645,0.093V466.779z"/>
	<path d="M271.092,470.422h-8.037c0,0.67,0.101,1.255,0.303,1.753s0.479,0.907,0.83,1.226c0.338,0.313,0.741,0.547,1.206,0.703
		s0.978,0.234,1.538,0.234c0.742,0,1.489-0.148,2.241-0.444s1.288-0.587,1.606-0.874h0.098v2.002
		c-0.619,0.26-1.25,0.479-1.895,0.654s-1.322,0.264-2.031,0.264c-1.81,0-3.223-0.49-4.238-1.47s-1.523-2.372-1.523-4.175
		c0-1.784,0.487-3.2,1.46-4.248s2.254-1.572,3.843-1.572c1.471,0,2.606,0.43,3.403,1.289s1.196,2.08,1.196,3.662V470.422z
		 M269.305,469.016c-0.006-0.963-0.249-1.709-0.728-2.236s-1.206-0.791-2.183-0.791c-0.983,0-1.766,0.29-2.349,0.869
		s-0.913,1.299-0.991,2.158H269.305z"/>
	<path d="M281.941,475.002c-0.612,0.293-1.193,0.521-1.743,0.684s-1.134,0.244-1.753,0.244c-0.788,0-1.51-0.116-2.168-0.347
		s-1.221-0.581-1.689-1.05c-0.475-0.469-0.843-1.061-1.104-1.777s-0.391-1.553-0.391-2.51c0-1.784,0.49-3.184,1.47-4.199
		s2.274-1.523,3.882-1.523c0.625,0,1.239,0.088,1.841,0.264s1.154,0.391,1.655,0.645v2.041h-0.098
		c-0.56-0.436-1.138-0.771-1.733-1.006s-1.177-0.352-1.743-0.352c-1.042,0-1.864,0.35-2.466,1.05s-0.903,1.727-0.903,3.081
		c0,1.315,0.294,2.326,0.884,3.032s1.417,1.06,2.485,1.06c0.371,0,0.749-0.049,1.133-0.146s0.729-0.225,1.035-0.381
		c0.267-0.137,0.518-0.282,0.752-0.435s0.42-0.285,0.557-0.396h0.098V475.002z"/>
	<path d="M289.959,475.588c-0.345,0.091-0.721,0.166-1.128,0.225s-0.77,0.088-1.089,0.088c-1.113,0-1.959-0.299-2.539-0.898
		s-0.869-1.559-0.869-2.881v-5.801h-1.24v-1.543h1.24v-3.135h1.836v3.135h3.789v1.543h-3.789v4.971c0,0.573,0.013,1.021,0.039,1.343
		s0.117,0.624,0.273,0.903c0.143,0.26,0.34,0.451,0.591,0.571s0.633,0.181,1.147,0.181c0.299,0,0.612-0.044,0.938-0.132
		s0.56-0.161,0.703-0.22h0.098V475.588z"/>
	<path d="M294.148,462.951h-2.07v-1.904h2.07V462.951z M294.031,475.686h-1.836v-10.908h1.836V475.686z"/>
	<path d="M306.961,470.236c0,1.777-0.456,3.18-1.367,4.209s-2.132,1.543-3.662,1.543c-1.543,0-2.769-0.514-3.677-1.543
		s-1.362-2.432-1.362-4.209s0.454-3.182,1.362-4.214s2.134-1.548,3.677-1.548c1.53,0,2.75,0.516,3.662,1.548
		S306.961,468.459,306.961,470.236z M305.066,470.236c0-1.413-0.277-2.462-0.83-3.149s-1.322-1.03-2.305-1.03
		c-0.996,0-1.769,0.343-2.319,1.03s-0.825,1.737-0.825,3.149c0,1.367,0.277,2.404,0.83,3.11s1.325,1.06,2.314,1.06
		c0.977,0,1.743-0.35,2.3-1.05S305.066,471.617,305.066,470.236z"/>
	<path d="M318.924,475.686h-1.836v-6.211c0-0.501-0.029-0.972-0.088-1.411s-0.166-0.783-0.322-1.03
		c-0.163-0.273-0.397-0.477-0.703-0.61s-0.703-0.2-1.191-0.2c-0.501,0-1.025,0.124-1.572,0.371s-1.071,0.563-1.572,0.947v8.145
		h-1.836v-10.908h1.836v1.211c0.573-0.475,1.166-0.846,1.777-1.113s1.24-0.4,1.885-0.4c1.178,0,2.077,0.355,2.695,1.064
		s0.928,1.732,0.928,3.066V475.686z"/>
	<path d="M338.787,470.236c0,1.777-0.456,3.18-1.367,4.209s-2.132,1.543-3.662,1.543c-1.543,0-2.769-0.514-3.677-1.543
		s-1.362-2.432-1.362-4.209s0.454-3.182,1.362-4.214s2.134-1.548,3.677-1.548c1.53,0,2.75,0.516,3.662,1.548
		S338.787,468.459,338.787,470.236z M336.893,470.236c0-1.413-0.277-2.462-0.83-3.149s-1.322-1.03-2.305-1.03
		c-0.996,0-1.769,0.343-2.319,1.03s-0.825,1.737-0.825,3.149c0,1.367,0.277,2.404,0.83,3.11s1.325,1.06,2.314,1.06
		c0.977,0,1.743-0.35,2.3-1.05S336.893,471.617,336.893,470.236z"/>
	<path d="M347.498,462.268H347.4c-0.202-0.059-0.465-0.119-0.791-0.181s-0.612-0.093-0.859-0.093c-0.788,0-1.359,0.174-1.714,0.522
		s-0.532,0.978-0.532,1.89v0.371h3.311v1.543h-3.252v9.365h-1.836v-9.365h-1.24v-1.543h1.24v-0.361c0-1.295,0.322-2.29,0.967-2.983
		s1.576-1.04,2.793-1.04c0.41,0,0.78,0.02,1.108,0.059s0.63,0.084,0.903,0.137V462.268z"/>
	<path d="M361.355,475.588c-0.345,0.091-0.721,0.166-1.128,0.225s-0.77,0.088-1.089,0.088c-1.113,0-1.959-0.299-2.539-0.898
		s-0.869-1.559-0.869-2.881v-5.801h-1.24v-1.543h1.24v-3.135h1.836v3.135h3.789v1.543h-3.789v4.971c0,0.573,0.013,1.021,0.039,1.343
		s0.117,0.624,0.273,0.903c0.143,0.26,0.34,0.451,0.591,0.571s0.633,0.181,1.147,0.181c0.299,0,0.612-0.044,0.938-0.132
		s0.56-0.161,0.703-0.22h0.098V475.588z"/>
	<path d="M372.869,470.236c0,1.777-0.456,3.18-1.367,4.209s-2.132,1.543-3.662,1.543c-1.543,0-2.769-0.514-3.677-1.543
		s-1.362-2.432-1.362-4.209s0.454-3.182,1.362-4.214s2.134-1.548,3.677-1.548c1.53,0,2.75,0.516,3.662,1.548
		S372.869,468.459,372.869,470.236z M370.975,470.236c0-1.413-0.277-2.462-0.83-3.149s-1.322-1.03-2.305-1.03
		c-0.996,0-1.769,0.343-2.319,1.03s-0.825,1.737-0.825,3.149c0,1.367,0.277,2.404,0.83,3.11s1.325,1.06,2.314,1.06
		c0.977,0,1.743-0.35,2.3-1.05S370.975,471.617,370.975,470.236z"/>
	<path d="M385.008,470.236c0,1.777-0.456,3.18-1.367,4.209s-2.132,1.543-3.662,1.543c-1.543,0-2.769-0.514-3.677-1.543
		s-1.362-2.432-1.362-4.209s0.454-3.182,1.362-4.214s2.134-1.548,3.677-1.548c1.53,0,2.75,0.516,3.662,1.548
		S385.008,468.459,385.008,470.236z M383.113,470.236c0-1.413-0.277-2.462-0.83-3.149s-1.322-1.03-2.305-1.03
		c-0.996,0-1.769,0.343-2.319,1.03s-0.825,1.737-0.825,3.149c0,1.367,0.277,2.404,0.83,3.11s1.325,1.06,2.314,1.06
		c0.977,0,1.743-0.35,2.3-1.05S383.113,471.617,383.113,470.236z"/>
	<path d="M389.705,475.686h-1.836V460.49h1.836V475.686z"/>
	<path d="M416.287,475.686h-1.836v-6.211c0-0.469-0.021-0.921-0.063-1.357s-0.132-0.785-0.269-1.045
		c-0.15-0.28-0.365-0.492-0.645-0.635s-0.684-0.215-1.211-0.215c-0.514,0-1.029,0.128-1.543,0.386s-1.029,0.584-1.543,0.981
		c0.02,0.15,0.036,0.324,0.049,0.522s0.02,0.396,0.02,0.591v6.982h-1.836v-6.211c0-0.482-0.021-0.939-0.063-1.372
		s-0.132-0.78-0.269-1.04c-0.15-0.28-0.365-0.49-0.645-0.63s-0.684-0.21-1.211-0.21c-0.501,0-1.004,0.124-1.509,0.371
		s-1.007,0.563-1.509,0.947v8.145h-1.836v-10.908h1.836v1.211c0.573-0.475,1.144-0.846,1.714-1.113s1.177-0.4,1.821-0.4
		c0.742,0,1.372,0.156,1.89,0.469s0.903,0.746,1.157,1.299c0.742-0.625,1.419-1.076,2.031-1.353s1.266-0.415,1.963-0.415
		c1.198,0,2.082,0.363,2.651,1.089s0.854,1.74,0.854,3.042V475.686z"/>
	<path d="M429.119,470.236c0,1.777-0.456,3.18-1.367,4.209s-2.132,1.543-3.662,1.543c-1.543,0-2.769-0.514-3.677-1.543
		s-1.362-2.432-1.362-4.209s0.454-3.182,1.362-4.214s2.134-1.548,3.677-1.548c1.53,0,2.75,0.516,3.662,1.548
		S429.119,468.459,429.119,470.236z M427.225,470.236c0-1.413-0.277-2.462-0.83-3.149s-1.322-1.03-2.305-1.03
		c-0.996,0-1.769,0.343-2.319,1.03s-0.825,1.737-0.825,3.149c0,1.367,0.277,2.404,0.83,3.11s1.325,1.06,2.314,1.06
		c0.977,0,1.743-0.35,2.3-1.05S427.225,471.617,427.225,470.236z"/>
	<path d="M437.625,475.588c-0.345,0.091-0.721,0.166-1.128,0.225s-0.77,0.088-1.089,0.088c-1.113,0-1.959-0.299-2.539-0.898
		S432,473.443,432,472.121v-5.801h-1.24v-1.543H432v-3.135h1.836v3.135h3.789v1.543h-3.789v4.971c0,0.573,0.013,1.021,0.039,1.343
		s0.117,0.624,0.273,0.903c0.143,0.26,0.34,0.451,0.591,0.571s0.633,0.181,1.147,0.181c0.299,0,0.612-0.044,0.938-0.132
		s0.56-0.161,0.703-0.22h0.098V475.588z"/>
	<path d="M441.814,462.951h-2.07v-1.904h2.07V462.951z M441.697,475.686h-1.836v-10.908h1.836V475.686z"/>
	<path d="M454.627,470.236c0,1.777-0.456,3.18-1.367,4.209s-2.132,1.543-3.662,1.543c-1.543,0-2.769-0.514-3.677-1.543
		s-1.362-2.432-1.362-4.209s0.454-3.182,1.362-4.214s2.134-1.548,3.677-1.548c1.53,0,2.75,0.516,3.662,1.548
		S454.627,468.459,454.627,470.236z M452.732,470.236c0-1.413-0.277-2.462-0.83-3.149s-1.322-1.03-2.305-1.03
		c-0.996,0-1.769,0.343-2.319,1.03s-0.825,1.737-0.825,3.149c0,1.367,0.277,2.404,0.83,3.11s1.325,1.06,2.314,1.06
		c0.977,0,1.743-0.35,2.3-1.05S452.732,471.617,452.732,470.236z"/>
	<path d="M466.59,475.686h-1.836v-6.211c0-0.501-0.029-0.972-0.088-1.411s-0.166-0.783-0.322-1.03
		c-0.163-0.273-0.397-0.477-0.703-0.61s-0.703-0.2-1.191-0.2c-0.501,0-1.025,0.124-1.572,0.371s-1.071,0.563-1.572,0.947v8.145
		h-1.836v-10.908h1.836v1.211c0.573-0.475,1.166-0.846,1.777-1.113s1.24-0.4,1.885-0.4c1.178,0,2.077,0.355,2.695,1.064
		s0.928,1.732,0.928,3.066V475.686z"/>
</g>
</svg>
